:FULLY-SPECIFIED
:FORCE-ALL-JOINTS-BE-3DOF
:DEGREES
1325
root -1.70074 14.5438 8.08709 352.144 30.9538 363.116
lfemur 3.87898 0.510115 -15.0308
ltibia 55.9904 0 0
lfoot -31.0224 29.9197 0
ltoes -17.5367 0 0
rfemur -37.1084 -4.0816 -4.14014
rtibia 30.416 0 0
rfoot 32.9459 1.52993 0
rtoes 5.54911 0 0
lowerback 12.4176 0.391199 -12.5381
upperback -1.38975 -1.40244 -0.0970854
thorax -8.25812 -0.0977393 7.25668
lowerneck -1.02493 -10.7202 -11.4129
upperneck 10.8961 -15.0497 9.91334
head 5.05264 -7.4384 3.99452
lclavicle 5.16692e-014 7.25709e-015 0
lhumerus -73.6715 -19.0596 107.436
lradius 98.8033 0 0
lwrist 63.434 0 0
lhand -13.1516 29.528 0
lfingers 7.12502 0 0
lthumb 12.9475 -300.883 0
rclavicle 5.16692e-014 7.25709e-015 0
rhumerus 65.107 -1.07277 -32.4568
rradius 77.7251 0 0
rwrist 29.0887 0 0
rhand -40.0795 -39.6027 0
rfingers 7.12502 0 0
rthumb -13.0451 -69.2081 0
1326
root -1.71946 14.5208 8.24612 352.35 31.2986 363.179
lfemur 4.57962 0.344141 -14.6685
ltibia 55.5294 0 0
lfoot -30.9989 30.2831 0
ltoes -17.4359 0 0
rfemur -37.3395 -4.42955 -4.149
rtibia 30.6585 0 0
rfoot 32.5064 1.85287 0
rtoes 5.1938 0 0
lowerback 12.3791 0.413503 -12.5766
upperback -1.41617 -1.37791 -0.119683
thorax -8.27138 -0.0823797 7.24836
lowerneck -0.864127 -10.8387 -11.4913
upperneck 10.7317 -15.2189 9.99914
head 5.00507 -7.52646 4.02865
lclavicle 5.14834e-014 7.31479e-015 0
lhumerus -75.7556 -18.5041 107.848
lradius 99.0514 0 0
lwrist 63.8343 0 0
lhand -12.9698 29.6021 0
lfingers 7.12502 0 0
lthumb 13.123 -300.811 0
rclavicle 5.14834e-014 7.31479e-015 0
rhumerus 66.3419 -1.91303 -31.2644
rradius 77.7656 0 0
rwrist 30.8461 0 0
rhand -40.6742 -39.0446 0
rfingers 7.12502 0 0
rthumb -13.6189 -68.6407 0
1327
root -1.73817 14.4978 8.40515 352.603 31.5948 363.241
lfemur 5.19209 0.209733 -14.3185
ltibia 55.0771 0 0
lfoot -30.9237 30.6562 0
ltoes -17.2266 0 0
rfemur -37.7153 -4.87098 -4.02398
rtibia 31.2306 0 0
rfoot 31.7462 2.1658 0
rtoes 4.73321 0 0
lowerback 12.3439 0.443346 -12.6031
upperback -1.45159 -1.34225 -0.140872
thorax -8.29908 -0.0609724 7.23262
lowerneck -0.709258 -10.9492 -11.5673
upperneck 10.5511 -15.3759 10.0859
head 4.95285 -7.60849 4.06397
lclavicle 5.09582e-014 7.33127e-015 0
lhumerus -77.3936 -18.0567 108.143
lradius 99.2828 0 0
lwrist 64.1327 0 0
lhand -12.8618 29.806 0
lfingers 7.12502 0 0
lthumb 13.2274 -300.607 0
rclavicle 5.09582e-014 7.33127e-015 0
rhumerus 67.285 -2.71207 -30.2636
rradius 77.8227 0 0
rwrist 32.2694 0 0
rhand -41.1908 -38.5071 0
rfingers 7.12502 0 0
rthumb -14.1172 -68.0923 0
1328
root -1.75688 14.4748 8.56418 352.9 31.8455 363.303
lfemur 5.72451 0.104137 -13.9811
ltibia 54.6306 0 0
lfoot -30.8009 31.0365 0
ltoes -16.9219 0 0
rfemur -38.2221 -5.39599 -3.77768
rtibia 32.1002 0 0
rfoot 30.6973 2.46898 0
rtoes 4.17967 0 0
lowerback 12.3115 0.48004 -12.6181
upperback -1.49512 -1.29641 -0.160782
thorax -8.33975 -0.0340721 7.20988
lowerneck -0.560296 -11.0521 -11.6407
upperneck 10.3563 -15.5211 10.173
head 4.89653 -7.68477 4.10017
lclavicle 5.01239e-014 7.30848e-015 0
lhumerus -78.6225 -17.7083 108.332
lradius 99.4983 0 0
lwrist 64.3372 0 0
lhand -12.8203 30.1278 0
lfingers 7.12502 0 0
lthumb 13.2676 -300.284 0
rclavicle 5.01239e-014 7.30848e-015 0
rhumerus 67.9608 -3.47155 -29.4394
rradius 77.8949 0 0
rwrist 33.3852 0 0
rhand -41.6348 -37.99 0
rfingers 7.12502 0 0
rthumb -14.5455 -67.5626 0
1329
root -1.77559 14.4518 8.72321 353.235 32.0538 363.364
lfemur 6.18504 0.0246019 -13.6562
ltibia 54.1871 0 0
lfoot -30.6347 31.4215 0
ltoes -16.535 0 0
rfemur -38.8461 -5.99466 -3.4227
rtibia 33.2355 0 0
rfoot 29.3917 2.76266 0
rtoes 3.54554 0 0
lowerback 12.2818 0.522896 -12.6225
upperback -1.54582 -1.24133 -0.179542
thorax -8.39194 -0.00223316 7.1806
lowerneck -0.417216 -11.1478 -11.7113
upperneck 10.1493 -15.6552 10.2601
head 4.83665 -7.7556 4.13699
lclavicle 4.90108e-014 7.24833e-015 0
lhumerus -79.4793 -17.4498 108.423
lradius 99.6988 0 0
lwrist 64.4562 0 0
lhand -12.8379 30.5553 0
lfingers 7.12502 0 0
lthumb 13.2507 -299.852 0
rclavicle 4.90108e-014 7.24833e-015 0
rhumerus 68.3941 -4.19313 -28.7769
rradius 77.9808 0 0
rwrist 34.2201 0 0
rhand -42.0121 -37.4928 0
rfingers 7.12502 0 0
rthumb -14.9094 -67.0517 0
1330
root -1.79431 14.4288 8.88224 353.604 32.2229 363.424
lfemur 6.58181 -0.0316255 -13.3442
ltibia 53.7437 0 0
lfoot -30.429 31.8089 0
ltoes -16.0792 0 0
rfemur -39.5734 -6.65709 -2.97164
rtibia 34.6046 0 0
rfoot 27.8613 3.04708 0
rtoes 2.84315 0 0
lowerback 12.2542 0.571222 -12.6169
upperback -1.60278 -1.17795 -0.197282
thorax -8.45417 0.0339899 7.14522
lowerneck -0.279993 -11.2366 -11.7789
upperneck 9.93203 -15.7788 10.3466
head 4.77378 -7.82126 4.17414
lclavicle 4.76493e-014 7.15277e-015 0
lhumerus -80.0008 -17.2723 108.428
lradius 99.885 0 0
lwrist 64.4976 0 0
lhand -12.9073 31.0766 0
lfingers 7.12502 0 0
lthumb 13.1838 -299.325 0
rclavicle 4.76493e-014 7.15277e-015 0
rhumerus 68.6093 -4.87846 -28.261
rradius 78.0788 0 0
rwrist 34.8006 0 0
rhand -42.3285 -37.0154 0
rfingers 7.12502 0 0
rthumb -15.2143 -66.5593 0
1331
root -1.81302 14.4058 9.04127 354.004 32.3558 363.484
lfemur 6.92299 -0.0672971 -13.0449
ltibia 53.2976 0 0
lfoot -30.1881 32.196 0
ltoes -15.5677 0 0
rfemur -40.3904 -7.37336 -2.43708
rtibia 36.1754 0 0
rfoot 26.1381 3.32251 0
rtoes 2.08485 0 0
lowerback 12.2285 0.624331 -12.6021
upperback -1.66509 -1.10722 -0.214129
thorax -8.52499 0.0740427 7.10418
lowerneck -0.148602 -11.319 -11.8433
upperneck 9.7066 -15.8927 10.432
head 4.70846 -7.88204 4.21133
lclavicle 4.60698e-014 7.02373e-015 0
lhumerus -80.224 -17.1665 108.355
lradius 100.058 0 0
lwrist 64.4698 0 0
lhand -13.0212 31.6798 0
lfingers 7.12502 0 0
lthumb 13.074 -298.715 0
rclavicle 4.60698e-014 7.02373e-015 0
rhumerus 68.631 -5.5292 -27.8766
rradius 78.1874 0 0
rwrist 35.1534 0 0
rhand -42.5895 -36.5574 0
rfingers 7.12502 0 0
rthumb -15.4659 -66.0855 0
1332
root -1.83173 14.3828 9.2003 354.428 32.4557 363.544
lfemur 7.2167 -0.0851652 -12.7587
ltibia 52.8458 0 0
lfoot -29.916 32.5805 0
ltoes -15.0136 0 0
rfemur -41.2832 -8.13356 -1.83165
rtibia 37.9162 0 0
rfoot 24.2542 3.58918 0
rtoes 1.28299 0 0
lowerback 12.2043 0.681532 -12.5787
upperback -1.73183 -1.03007 -0.230214
thorax -8.60293 0.117371 7.05792
lowerneck -0.0230168 -11.3953 -11.9044
upperneck 9.47496 -15.9973 10.5159
head 4.64124 -7.93823 4.24829
lclavicle 4.43024e-014 6.86313e-015 0
lhumerus -80.1859 -17.1236 108.215
lradius 100.218 0 0
lwrist 64.3809 0 0
lhand -13.1723 32.3528 0
lfingers 7.12502 0 0
lthumb 12.9283 -298.033 0
rclavicle 4.43024e-014 6.86313e-015 0
rhumerus 68.484 -6.147 -27.6087
rradius 78.3052 0 0
rwrist 35.305 0 0
rhand -42.801 -36.1185 0
rfingers 7.12502 0 0
rthumb -15.6696 -65.6301 0
1333
root -1.85045 14.3598 9.35933 354.872 32.5258 363.604
lfemur 7.47109 -0.0879821 -12.4856
ltibia 52.3857 0 0
lfoot -29.6167 32.9599 0
ltoes -14.4304 0 0
rfemur -42.2381 -8.92779 -1.16792
rtibia 39.7951 0 0
rfoot 22.2414 3.84736 0
rtoes 0.449914 0 0
lowerback 12.1813 0.742137 -12.5475
upperback -1.80209 -0.94746 -0.245665
thorax -8.68653 0.163419 7.00689
lowerneck 0.0967872 -11.466 -11.9619
upperneck 9.23911 -16.0933 10.5977
head 4.57267 -7.99012 4.28472
lclavicle 4.23776e-014 6.67291e-015 0
lhumerus -79.9233 -17.1343 108.017
lradius 100.367 0 0
lwrist 64.2389 0 0
lhand -13.3532 33.0837 0
lfingers 7.12502 0 0
lthumb 12.7538 -297.294 0
rclavicle 4.23776e-014 6.67291e-015 0
rhumerus 68.1928 -6.73353 -27.4424
rradius 78.4305 0 0
rwrist 35.282 0 0
rhand -42.9687 -35.6985 0
rfingers 7.12502 0 0
rthumb -15.8311 -65.193 0
1334
root -1.86916 14.3368 9.51836 355.333 32.569 363.664
lfemur 7.69432 -0.0785 -12.2258
ltibia 51.9143 0 0
lfoot -29.2945 33.3317 0
ltoes -13.831 0 0
rfemur -43.2412 -9.74613 -0.458509
rtibia 41.7799 0 0
rfoot 20.1318 4.09728 0
rtoes -0.402037 0 0
lowerback 12.1591 0.805455 -12.5092
upperback -1.87496 -0.860327 -0.260612
thorax -8.77431 0.211634 6.95154
lowerneck 0.210836 -11.5314 -12.0156
upperneck 9.00107 -16.1814 10.677
head 4.50331 -8.038 4.32036
lclavicle 4.03257e-014 6.455e-015 0
lhumerus -79.4731 -17.1898 107.771
lradius 100.505 0 0
lwrist 64.0522 0 0
lhand -13.5566 33.8603 0
lfingers 7.12502 0 0
lthumb 12.5576 -296.507 0
rclavicle 4.03257e-014 6.455e-015 0
rhumerus 67.7819 -7.29043 -27.3625
rradius 78.562 0 0
rwrist 35.111 0 0
rhand -43.0983 -35.297 0
rfingers 7.12502 0 0
rthumb -15.9557 -64.7741 0
1335
root -1.88787 14.3137 9.6774 355.805 32.5886 363.725
lfemur 7.89452 -0.0594713 -11.9793
ltibia 51.4287 0 0
lfoot -28.9533 33.6935 0
ltoes -13.2289 0 0
rfemur -44.2788 -10.5787 0.283993
rtibia 43.839 0 0
rfoot 17.9573 4.33921 0
rtoes -1.26052 0 0
lowerback 12.1373 0.870798 -12.4645
upperback -1.94951 -0.769615 -0.275183
thorax -8.86482 0.261461 6.8923
lowerneck 0.319154 -11.592 -12.0655
upperneck 8.76283 -16.2622 10.7533
head 4.43371 -8.08215 4.3549
lclavicle 3.81771e-014 6.21133e-015 0
lhumerus -78.8723 -17.2808 107.486
lradius 100.633 0 0
lwrist 63.8289 0 0
lhand -13.7752 34.6708 0
lfingers 7.12502 0 0
lthumb 12.3468 -295.687 0
rclavicle 3.81771e-014 6.21133e-015 0
rhumerus 67.276 -7.81937 -27.354
rradius 78.6982 0 0
rwrist 34.8186 0 0
rhand -43.1956 -34.9138 0
rfingers 7.12502 0 0
rthumb -16.0492 -64.3733 0
1336
root -1.90658 14.2907 9.83643 356.284 32.5877 363.785
lfemur 8.07984 -0.0336481 -11.7463
ltibia 50.9262 0 0
lfoot -28.5973 34.0427 0
ltoes -12.6371 0 0
rfemur -45.3371 -11.4155 1.04699
rtibia 45.9403 0 0
rfoot 15.7499 4.5734 0
rtoes -2.11318 0 0
lowerback 12.1155 0.937476 -12.4141
upperback -2.02483 -0.676268 -0.289508
thorax -8.9566 0.312345 6.82963
lowerneck 0.421767 -11.6481 -12.1112
upperneck 8.52639 -16.3363 10.826
head 4.36442 -8.12287 4.38808
lclavicle 3.59619e-014 5.94384e-015 0
lhumerus -78.1578 -17.3984 107.174
lradius 100.752 0 0
lwrist 63.5771 0 0
lhand -14.0016 35.5032 0
lfingers 7.12502 0 0
lthumb 12.1283 -294.845 0
rclavicle 3.59619e-014 5.94384e-015 0
rhumerus 66.6998 -8.32199 -27.402
rradius 78.8374 0 0
rwrist 34.4313 0 0
rhand -43.2663 -34.5486 0
rfingers 7.12502 0 0
rthumb -16.117 -63.9906 0
